<?xml version="1.0" standalone="no"?>
<!DOCTYPE svg PUBLIC "-//W3C//DTD SVG 20010904//EN"
 "http://www.w3.org/TR/2001/REC-SVG-20010904/DTD/svg10.dtd">
<svg version="1.0" xmlns="http://www.w3.org/2000/svg"
 width="700.000000pt" height="700.000000pt" viewBox="0 0 700.000000 700.000000"
 preserveAspectRatio="xMidYMid meet">
<metadata>
Created by potrace 1.14, written by Peter Selinger 2001-2017
</metadata>
<g transform="translate(0.000000,700.000000) scale(0.100000,-0.100000)"
fill="#000000" stroke="none">
<path d="M3351 6984 c-95 -20 -235 -93 -309 -159 -69 -63 -136 -153 -171 -229
-27 -59 -61 -187 -61 -231 0 -31 0 -31 -102 -59 -57 -15 -110 -30 -118 -33 -8
-4 -17 -7 -20 -7 -65 -15 -399 -166 -515 -234 l-70 -41 -25 23 c-38 36 -128
90 -190 114 -87 33 -139 44 -230 47 -304 11 -575 -173 -678 -460 -57 -160 -49
-351 21 -510 22 -51 74 -133 108 -170 17 -19 17 -21 -7 -60 -106 -172 -231
-469 -288 -684 -14 -51 -27 -94 -28 -96 -2 -1 -38 -7 -81 -13 -275 -41 -500
-248 -566 -520 -21 -83 -22 -253 -3 -322 38 -134 92 -230 182 -321 115 -116
263 -190 408 -205 l59 -7 32 -115 c54 -197 165 -458 269 -636 l41 -69 -34 -39
c-46 -54 -98 -158 -126 -248 -18 -59 -23 -99 -23 -185 0 -152 29 -249 110
-375 93 -145 239 -251 404 -296 89 -23 253 -23 345 0 82 21 203 82 259 130
l40 33 59 -34 c170 -100 439 -213 648 -272 l116 -33 7 -60 c18 -173 127 -362
271 -468 124 -91 247 -133 395 -134 58 -1 121 2 140 5 220 39 400 176 500 378
34 68 70 195 70 247 0 31 2 33 53 44 55 12 272 83 322 105 17 7 73 31 125 54
52 23 147 70 210 105 l115 64 32 -28 c80 -71 221 -133 336 -149 308 -42 593
110 728 390 80 164 86 375 17 549 -23 60 -95 177 -121 198 -15 13 -14 18 14
65 54 93 129 247 174 356 39 96 115 327 129 392 5 24 11 27 66 32 145 16 294
90 406 201 127 127 191 274 200 452 9 203 -55 373 -196 515 -114 115 -263 190
-408 205 l-59 7 -13 51 c-19 76 -97 310 -122 364 -69 152 -121 256 -161 326
l-46 80 29 32 c168 192 203 509 83 749 -97 191 -282 332 -488 371 -52 10 -195
12 -233 3 -20 -4 -48 -10 -62 -13 -79 -16 -203 -76 -267 -130 l-38 -33 -40 23
c-215 125 -466 229 -722 300 -52 14 -63 20 -63 38 -2 85 -42 214 -96 307 -58
100 -171 205 -281 262 -51 26 -93 46 -93 43 0 -2 -21 3 -47 11 -66 20 -242 25
-322 7z m-493 -932 c41 -111 144 -240 252 -315 58 -40 184 -95 238 -103 l42
-6 -2 -456 -3 -456 -40 -4 c-58 -5 -198 -40 -269 -66 -116 -44 -268 -130 -334
-190 l-23 -20 -320 320 -320 320 46 89 c59 117 78 195 78 320 1 107 -17 193
-57 281 l-23 51 41 24 c73 45 291 148 377 180 107 39 259 88 280 88 11 1 23
-18 37 -57z m1462 16 c174 -55 378 -144 517 -225 l41 -24 -23 -52 c-91 -198
-77 -433 37 -636 l30 -54 -319 -319 -319 -319 -60 43 c-77 57 -126 86 -199
121 -67 32 -213 83 -260 91 -16 3 -55 9 -85 14 -30 6 -57 9 -60 8 -3 0 -6 204
-8 454 l-2 456 56 12 c123 25 274 121 366 230 45 54 100 150 118 205 14 45 12
45 170 -5z m-2077 -1466 l319 -319 -50 -66 c-108 -144 -199 -364 -218 -527 -3
-19 -7 -45 -10 -57 l-4 -23 -454 0 -453 0 -7 42 c-9 52 -58 170 -94 224 -77
117 -207 223 -324 266 -57 20 -59 22 -53 52 14 65 98 306 142 406 56 126 139
276 150 273 4 -1 37 -14 72 -29 128 -52 287 -63 424 -30 34 9 100 36 147 60
47 24 87 44 90 45 3 0 148 -142 323 -317z m2899 283 c203 -111 447 -121 640
-24 l37 19 14 -28 c88 -164 135 -263 176 -365 45 -114 101 -287 101 -314 0 -6
-21 -18 -47 -27 -197 -67 -383 -277 -425 -478 l-12 -58 -453 0 -453 0 -4 23
c-3 12 -10 52 -16 89 -25 155 -109 353 -210 493 l-50 70 317 317 c175 175 319
318 320 318 1 0 31 -16 65 -35z m-2855 -1535 c2 -19 8 -55 13 -80 6 -25 12
-54 14 -65 17 -89 95 -268 164 -374 36 -54 41 -62 71 -97 12 -14 -21 -51 -305
-335 l-319 -319 -90 45 c-120 60 -196 78 -325 78 -109 0 -209 -22 -291 -64
l-36 -18 -46 82 c-61 111 -88 167 -130 267 -42 104 -103 282 -112 331 l-7 36
59 21 c75 28 159 83 229 152 90 88 148 183 179 295 9 33 18 66 20 73 4 10 100
12 457 10 l452 -3 3 -35z m3344 23 c2 -57 39 -154 90 -239 70 -115 220 -238
342 -280 58 -20 58 -9 -13 -225 -48 -143 -125 -320 -195 -445 l-35 -63 -53 24
c-91 42 -174 59 -287 58 -125 -1 -217 -24 -329 -84 l-75 -40 -319 319 -320
320 35 44 c116 146 211 367 235 548 4 32 10 72 12 78 1 1 206 2 456 2 426 0
455 -1 456 -17z m-2846 -862 c151 -113 394 -209 570 -223 l30 -3 0 -454 0
-454 -55 -14 c-129 -32 -266 -119 -359 -227 -45 -52 -103 -152 -121 -209 -11
-36 -14 -38 -43 -31 -156 32 -472 161 -644 261 l-41 24 23 52 c37 80 57 174
58 267 1 139 -23 237 -90 359 l-35 64 318 318 c175 176 320 319 321 319 1 0
32 -22 68 -49z m1818 -269 l317 -317 -45 -90 c-56 -111 -77 -193 -78 -304 -2
-121 20 -226 63 -312 l19 -36 -72 -40 c-66 -38 -237 -121 -297 -145 -98 -39
-266 -94 -321 -104 -24 -4 -28 0 -47 54 -72 196 -274 372 -474 414 l-58 12 0
459 c0 252 3 456 8 454 6 -4 51 1 138 17 62 11 213 65 286 102 76 38 212 126
223 144 3 5 9 10 13 10 4 0 150 -143 325 -318z"/>
</g>
</svg>
