<?xml version="1.0" encoding="iso-8859-1"?>
<!-- Generator: Adobe Illustrator 19.0.0, SVG Export Plug-In . SVG Version: 6.00 Build 0)  -->
<svg version="1.1" id="Layer_1" xmlns="http://www.w3.org/2000/svg" xmlns:xlink="http://www.w3.org/1999/xlink" x="0px" y="0px"
	 viewBox="0 0 512.002 512.002" style="enable-background:new 0 0 512.002 512.002;" xml:space="preserve">
<circle style="fill:#0055B8;" cx="255.999" cy="255.999" r="81.407"/>
<circle style="fill:#00A8E1;" cx="255.999" cy="50.631" r="42.628"/>
<circle style="fill:#FF9E16;" cx="110.776" cy="110.787" r="42.629"/>
<circle style="fill:#00A8E1;" cx="50.63" cy="255.999" r="42.629"/>
<circle style="fill:#4BB6AA;" cx="110.776" cy="401.222" r="42.629"/>
<circle style="fill:#FF9E16;" cx="255.999" cy="461.368" r="42.628"/>
<circle style="fill:#0071CE;" cx="401.222" cy="401.222" r="42.628"/>
<circle style="fill:#FF9E16;" cx="461.368" cy="255.999" r="42.628"/>
<circle style="fill:#0071CE;" cx="401.222" cy="110.777" r="42.628"/>
<path style="fill:#1E252B;" d="M463.283,205.421c-5.196-21.243-13.61-41.398-25.082-60.08c18.538-19.822,18.153-51.024-1.181-70.362
	c-9.563-9.562-22.276-14.826-35.8-14.826c-12.885,0-25.027,4.79-34.416,13.511c-18.697-11.348-38.896-19.649-60.217-24.745
	C305.679,21.792,283.343,0.001,256,0.001c-27.276,0-49.571,21.684-50.581,48.717c-21.242,5.196-41.396,13.61-60.077,25.081
	c-9.41-8.806-21.611-13.646-34.561-13.646c-13.524,0-26.238,5.267-35.8,14.828c-9.563,9.563-14.83,22.277-14.83,35.801
	c0,12.884,4.79,25.027,13.511,34.416c-11.346,18.696-19.647,38.895-24.745,60.216C21.79,206.324,0,228.659,0,256.001
	c0,27.276,21.684,49.57,48.717,50.582c5.196,21.243,13.61,41.397,25.081,60.079c-18.537,19.824-18.152,51.026,1.182,70.359
	c9.563,9.563,22.277,14.828,35.801,14.828c12.884,0,25.026-4.789,34.415-13.509c18.695,11.346,38.895,19.647,60.218,24.746
	c0.91,27.124,23.244,48.915,50.586,48.915c13.524,0,26.238-5.266,35.801-14.828c9.109-9.11,14.309-21.082,14.781-33.887
	c21.243-5.196,41.396-13.611,60.078-25.082c9.408,8.804,21.608,13.644,34.559,13.645h0.004c13.522,0,26.235-5.266,35.798-14.828
	c9.563-9.563,14.828-22.277,14.828-35.801c0-12.884-4.79-25.026-13.51-34.415c11.346-18.696,19.648-38.896,24.744-60.218
	c27.125-0.908,48.916-23.243,48.917-50.587C511.999,228.723,490.314,206.429,463.283,205.421z M447.283,207.381
	c-18.59,5.396-32.804,21.176-35.905,40.625h-66.348c-1.662-18.651-9.065-35.672-20.44-49.272l46.938-46.938
	c8.581,6.24,18.874,9.616,29.69,9.617h0.004c8.622,0,16.911-2.15,24.267-6.18C435.293,171.522,442.598,189.004,447.283,207.381z
	 M329.404,256.002c0,40.475-32.929,73.404-73.404,73.404s-73.404-32.929-73.404-73.404s32.929-73.404,73.404-73.404
	S329.404,215.526,329.404,256.002z M376.735,86.297c6.539-6.541,15.235-10.142,24.485-10.142c9.249,0,17.945,3.6,24.484,10.14
	c13.501,13.504,13.501,35.472,0.001,48.973c-6.541,6.541-15.234,10.142-24.483,10.142h-0.002
	c-9.251-0.001-17.948-3.603-24.487-10.14C363.232,121.766,363.232,99.797,376.735,86.297z M304.57,64.894
	c18.458,4.587,35.993,11.785,52.307,21.47c-9.33,16.96-8.224,38.169,3.337,54.113l-46.939,46.939
	c-13.601-11.376-30.62-18.781-49.271-20.444V100.62C283.388,97.527,299.126,83.395,304.57,64.894z M256,16.002
	c19.094,0,34.628,15.534,34.628,34.627S275.095,85.257,256,85.257c-19.095,0-34.628-15.534-34.628-34.627
	C221.372,31.536,236.905,16.002,256,16.002z M155.229,86.51c16.291-9.802,33.773-17.107,52.15-21.793
	c5.396,18.59,21.175,32.804,40.622,35.903v66.35c-18.651,1.662-35.672,9.065-49.273,20.44l-46.938-46.938
	c6.241-8.582,9.618-18.875,9.618-29.692C161.411,102.159,159.261,93.869,155.229,86.51z M86.296,86.297
	c6.541-6.541,15.236-10.142,24.485-10.142c9.25,0,17.946,3.603,24.487,10.142c6.539,6.539,10.141,15.236,10.141,24.485
	s-3.602,17.945-10.142,24.485c-6.541,6.541-15.235,10.142-24.483,10.142h-0.002c-9.25-0.001-17.946-3.603-24.485-10.141
	c-6.541-6.541-10.143-15.236-10.143-24.486C76.153,101.533,79.756,92.837,86.296,86.297z M86.352,155.141
	c7.396,4.087,15.742,6.27,24.427,6.271h0.004c10.817,0,21.112-3.379,29.694-9.622l46.937,46.937
	c-11.377,13.601-18.781,30.619-20.445,49.271l-66.349,0.001c-3.093-19.385-17.226-35.124-35.729-40.567
	C69.478,188.978,76.672,171.451,86.352,155.141z M16.002,256.001c0-19.092,15.535-34.627,34.627-34.628
	c19.094,0.001,34.627,15.536,34.627,34.628c-0.001,19.095-15.535,34.628-34.626,34.628
	C31.537,290.629,16.002,275.095,16.002,256.001z M64.717,304.622c18.589-5.396,32.803-21.175,35.904-40.622l66.348-0.001
	c1.662,18.652,9.065,35.672,20.44,49.273l-46.937,46.937c-8.582-6.242-18.876-9.619-29.692-9.619
	c-8.624,0-16.914,2.151-24.273,6.182C76.707,340.48,69.401,322.998,64.717,304.622z M135.268,425.704
	c-6.541,6.541-15.236,10.142-24.486,10.142c-9.249,0-17.945-3.602-24.485-10.141c-13.501-13.501-13.501-35.47,0-48.972
	c6.539-6.539,15.236-10.141,24.485-10.141c9.25,0,17.946,3.602,24.486,10.142C148.768,390.235,148.768,412.204,135.268,425.704z
	 M207.429,447.111c-18.46-4.589-35.994-11.786-52.307-21.47c9.331-16.961,8.224-38.17-3.335-54.114l46.938-46.938
	c13.601,11.377,30.619,18.78,49.271,20.445v66.349C228.61,414.473,212.871,428.607,207.429,447.111z M280.486,485.857
	c-6.541,6.539-15.236,10.142-24.485,10.142c-19.094,0-34.628-15.534-34.628-34.628c0-19.094,15.534-34.627,34.626-34.627
	c9.25,0,17.946,3.603,24.486,10.142c6.541,6.541,10.142,15.236,10.141,24.485C290.628,470.621,287.027,479.316,280.486,485.857z
	 M356.79,425.48c-16.291,9.805-33.773,17.114-52.149,21.8c-2.341-8.122-6.698-15.568-12.84-21.709
	c-7.65-7.649-17.319-12.54-27.804-14.196v-66.343c18.651-1.662,35.672-9.065,49.273-20.44l46.939,46.939
	C348.69,387.425,347.555,408.548,356.79,425.48z M425.706,425.704c-6.541,6.541-15.235,10.142-24.483,10.142h-0.003
	c-9.25,0-17.947-3.602-24.486-10.141c-13.501-13.501-13.501-35.47-0.001-48.97c6.541-6.541,15.237-10.142,24.487-10.142
	c9.249,0,17.945,3.602,24.484,10.141c6.541,6.541,10.143,15.237,10.143,24.486C435.847,410.469,432.245,419.165,425.706,425.704z
	 M425.649,356.861c-7.397-4.088-15.744-6.271-24.43-6.271c-10.819,0-21.115,3.379-29.7,9.624l-46.936-46.935
	c11.377-13.601,18.78-30.62,20.445-49.271h66.35c3.094,19.383,17.226,35.121,35.728,40.564
	C442.523,323.023,435.329,340.552,425.649,356.861z M461.37,290.628c-19.092,0-34.627-15.534-34.628-34.626
	c0.001-19.095,15.535-34.629,34.628-34.628c19.092-0.001,34.626,15.533,34.627,34.625
	C495.997,275.093,480.463,290.628,461.37,290.628z"/>
<g>
</g>
<g>
</g>
<g>
</g>
<g>
</g>
<g>
</g>
<g>
</g>
<g>
</g>
<g>
</g>
<g>
</g>
<g>
</g>
<g>
</g>
<g>
</g>
<g>
</g>
<g>
</g>
<g>
</g>
</svg>
