<?xml version="1.0" encoding="UTF-8" standalone="no"?>
<svg
   enable-background="new 0 0 2000 2000"
   viewBox="0 0 433.88 647.34003"
   version="1.1"
   id="svg111"
   sodipodi:docname="icon.svg"
   width="433.88"
   height="647.34003"
   inkscape:version="1.1.1 (c3084ef, 2021-09-22)"
   xmlns:inkscape="http://www.inkscape.org/namespaces/inkscape"
   xmlns:sodipodi="http://sodipodi.sourceforge.net/DTD/sodipodi-0.dtd"
   xmlns="http://www.w3.org/2000/svg"
   xmlns:svg="http://www.w3.org/2000/svg">
  <defs
     id="defs115" />
  <sodipodi:namedview
     id="namedview113"
     pagecolor="#ffffff"
     bordercolor="#666666"
     borderopacity="1.0"
     inkscape:pageshadow="2"
     inkscape:pageopacity="0.0"
     inkscape:pagecheckerboard="true"
     showgrid="false"
     viewbox-x="0"
     fit-margin-top="50"
     fit-margin-left="50"
     fit-margin-right="50"
     fit-margin-bottom="50"
     lock-margins="true"
     inkscape:showpageshadow="false"
     showborder="true"
     inkscape:zoom="0.2505"
     inkscape:cx="211.57685"
     inkscape:cy="321.35729"
     inkscape:window-width="2023"
     inkscape:window-height="1223"
     inkscape:window-x="0"
     inkscape:window-y="23"
     inkscape:window-maximized="0"
     inkscape:current-layer="svg111" />
  <path
     d="m 174.62,444.41 -21.32,61.71 -8.45,24.45 27,66.77 9.24,-22.5 53.53,-130.43 z"
     id="path87" />
  <path
     d="m 278.47,337.57 -43.85,106.84 -53.53,130.43 -9.24,22.5 -28.92,-61.23 1.92,-5.54 8.45,-24.45 21.33,-61.71 44.3,-128.2 c 5.37,8.3 11.4,16.17 18.05,23.53 l 6.59,7.29 9.61,-2.07 c 8.62,-1.86 17.07,-4.34 25.29,-7.39 z"
     fill="#9e2a2b"
     id="path89" />
  <path
     d="m 181.09,574.84 -9.24,22.5 -28.92,-61.23 10.37,-29.99 7.31,18.08 z"
     opacity="0.38"
     id="path91" />
  <g
     fill="#9e2a2b"
     id="g101"
     transform="translate(-783.06,-676.33)">
    <path
       d="M 954.91,1273.67 H 898.6 l -65.54,-152.93 h 60 l 34.85,86.16 z"
       id="path93" />
    <path
       d="m 1157.81,891.38 c -19.15,59.46 -68.18,100.98 -125.15,113.29 C 993.58,961.42 978,899.09 997.15,839.63 c 19.15,-59.47 68.18,-100.99 125.15,-113.3 39.08,43.25 54.66,105.58 35.51,165.05 z"
       id="path95" />
    <path
       d="m 1166.94,978.47 -39,121.1 c 0.47,-50.8 -15.48,-85.37 -28.37,-104.94 7.41,-4.88 14.47,-10.3 21.13,-16.22 9.67,-8.6 18.38,-18.17 26.01,-28.53 z"
       id="path97" />
    <path
       d="m 984.17,957.47 c -21.89,8.37 -55.01,27.13 -84.28,68.66 l 39.01,-121.11 33.12,-11.41 c 0.14,12.87 1.63,25.73 4.46,38.35 1.95,8.69 4.53,17.22 7.69,25.51 z"
       id="path99" />
  </g>
  <path
     d="m 343.1,140.62 c -4.74,14.71 -19.29,23.53 -34.09,21.55 -1.57,-0.22 -3.15,-0.55 -4.72,-1.01 -0.25,-0.07 -0.51,-0.15 -0.77,-0.23 -4.49,-1.45 -8.44,-3.81 -11.69,-6.82 -2.4,-2.22 -4.43,-4.78 -6.02,-7.6 -4.19,-7.39 -5.4,-16.44 -2.59,-25.17 5.3,-16.46 22.89,-25.54 39.36,-20.36 0.07,0.02 0.15,0.04 0.22,0.07 3.11,1 5.95,2.44 8.48,4.22 4,2.82 7.23,6.5 9.51,10.69 0.77,1.42 1.43,2.89 1.98,4.42 2.26,6.29 2.54,13.37 0.33,20.24 z"
     fill="#ffffff"
     id="path103" />
  <g
     fill="#b73940"
     id="g109"
     transform="translate(-783.06,-676.33)">
    <path
       d="m 1114.34,781.59 -39.45,48.84 c -2.4,-2.22 -4.43,-4.78 -6.02,-7.6 l 36.77,-45.53 c 0.07,0.02 0.15,0.04 0.22,0.07 3.11,1 5.95,2.44 8.48,4.22 z"
       id="path105" />
    <path
       d="m 1125.83,796.69 -33.76,41.8 c -1.57,-0.22 -3.15,-0.55 -4.72,-1.01 l 36.51,-45.2 c 0.76,1.42 1.42,2.89 1.97,4.41 z"
       id="path107" />
  </g>
</svg>
