<?xml version="1.0" encoding="iso-8859-1"?>
<!-- Generator: Adobe Illustrator 19.0.0, SVG Export Plug-In . SVG Version: 6.00 Build 0)  -->
<svg version="1.1" id="Layer_1" xmlns="http://www.w3.org/2000/svg" xmlns:xlink="http://www.w3.org/1999/xlink" x="0px" y="0px"
	 viewBox="0 0 508 508" style="enable-background:new 0 0 508 508;" xml:space="preserve">
<circle style="fill:#F1543F;" cx="254" cy="254" r="254"/>
<g>
	<path style="fill:#F9B54C;" d="M260.8,126v256c-2-0.4-4-0.8-6-0.8s-4,0.4-6,0.8V126c2,0.4,4,0.8,6,0.8S259.2,126.4,260.8,126z"/>
	<path style="fill:#F9B54C;" d="M390.8,126v38.8l-16.4,16.4c-2-3.6-4.8-6.4-8.4-8.4l12.8-12.8v-34c2,0.4,4,0.8,6,0.8
		S388.8,126.4,390.8,126z"/>
	<path style="fill:#F9B54C;" d="M326.4,125.6v42l-22,33.6v33.6c-2-0.4-4-0.8-6-0.8s-4,0.4-6,0.8v-37.2l22-33.6v-38
		c1.6,0.4,3.6,0.8,5.6,0.8S324.4,126.4,326.4,125.6z"/>
	<path style="fill:#F9B54C;" d="M304.4,306.8l22,33.6V382c-4-1.2-8-1.2-12,0v-38.4l-22-33.6v-37.2c2,0.4,4,0.8,6,0.8s4-0.4,6-0.8
		V306.8z"/>
	<path style="fill:#F9B54C;" d="M220.4,197.6v37.2c-2-0.4-4-0.8-6-0.8s-4,0.4-6,0.8v-33.6l-21.6-33.6V126c1.6,0.4,3.6,0.8,5.6,0.8
		s4.4-0.4,6.4-0.8v38.4L220.4,197.6z"/>
	<path style="fill:#F9B54C;" d="M214.4,274c2,0,4-0.4,6-0.8v37.2L198.8,344v38.4c-2-0.8-4-1.2-6.4-1.2c-2,0-4,0.4-5.6,0.8v-41.6
		l21.6-33.6v-33.6C210.4,273.6,212.4,274,214.4,274z"/>
	<path style="fill:#F9B54C;" d="M143.6,172.4c-3.6,2-6.4,4.8-8.4,8.4l-16.4-16.4V126c2,0.4,4,0.8,6,0.8c2,0,4-0.4,6-0.8v34
		L143.6,172.4z"/>
	<path style="fill:#F9B54C;" d="M390.8,343.2V382c-4-1.2-8-1.2-12,0v-34L366,335.2c3.6-2,6.4-4.8,8.4-8.4L390.8,343.2z"/>
	<path style="fill:#F9B54C;" d="M143.6,335.6l-12.8,12.8V382c-2-0.4-4-0.8-6-0.8s-4,0.4-6,0.8v-38.8l16.4-16.4
		C137.2,330.8,140,333.6,143.6,335.6z"/>
</g>
<circle style="fill:#FFFFFF;" cx="356.8" cy="190" r="20"/>
<circle style="fill:#FFD05B;" cx="356.8" cy="190" r="11.2"/>
<path style="fill:#F9B54C;" d="M364.8,254c0,2,0.4,4,0.8,6h-48c0.4-2,0.8-4,0.8-6s-0.4-4-0.8-6H366C365.2,250,364.8,252,364.8,254z"
	/>
<circle style="fill:#FFFFFF;" cx="298.4" cy="254" r="20"/>
<circle style="fill:#FFD05B;" cx="298.4" cy="254" r="11.2"/>
<circle style="fill:#FFFFFF;" cx="384.8" cy="254" r="20"/>
<circle style="fill:#FFD05B;" cx="384.8" cy="254" r="11.2"/>
<path style="fill:#F9B54C;" d="M194.4,254c0,2,0.4,4,0.8,6h-48.4c0.4-2,0.8-4,0.8-6s-0.4-4-0.8-6h48.4
	C194.8,250,194.4,252,194.4,254z"/>
<circle style="fill:#FFFFFF;" cx="214.4" cy="254" r="20"/>
<circle style="fill:#FFD05B;" cx="214.4" cy="254" r="11.2"/>
<g>
	<path style="fill:#FFFFFF;" d="M148,254c0,11.2-8.8,20-20,20s-20-8.8-20-20c0-11.2,8.8-20,20-20C138.8,234,148,242.8,148,254z"/>
	<circle style="fill:#FFFFFF;" cx="320.4" cy="401.2" r="20"/>
	<circle style="fill:#FFFFFF;" cx="192.4" cy="401.2" r="20"/>
	<circle style="fill:#FFFFFF;" cx="384.8" cy="401.2" r="20"/>
	<circle style="fill:#FFFFFF;" cx="255.2" cy="401.2" r="20"/>
	<circle style="fill:#FFFFFF;" cx="125.2" cy="401.2" r="20"/>
</g>
<circle style="fill:#FFD05B;" cx="125.2" cy="401.2" r="11.2"/>
<g>
	<circle style="fill:#FFFFFF;" cx="356.8" cy="318" r="20"/>
	<circle style="fill:#FFFFFF;" cx="153.2" cy="318" r="20"/>
</g>
<circle style="fill:#FFD05B;" cx="153.2" cy="318" r="11.2"/>
<g>
	<circle style="fill:#FFFFFF;" cx="153.2" cy="190" r="20"/>
	<circle style="fill:#FFFFFF;" cx="128" cy="254" r="20"/>
</g>
<circle style="fill:#FFD05B;" cx="128" cy="254" r="11.2"/>
<circle style="fill:#FFFFFF;" cx="128" cy="254" r="20"/>
<g>
	<circle style="fill:#FFD05B;" cx="128" cy="254" r="11.2"/>
	<circle style="fill:#FFD05B;" cx="153.2" cy="190" r="11.2"/>
</g>
<g>
	<circle style="fill:#FFFFFF;" cx="384.8" cy="106.8" r="20"/>
	<circle style="fill:#FFFFFF;" cx="320" cy="106.8" r="20"/>
	<circle style="fill:#FFFFFF;" cx="192.4" cy="106.8" r="20"/>
	<circle style="fill:#FFFFFF;" cx="125.2" cy="106.8" r="20"/>
	<circle style="fill:#FFFFFF;" cx="255.2" cy="106.8" r="20"/>
</g>
<g>
	<circle style="fill:#FFD05B;" cx="255.2" cy="106.8" r="11.2"/>
	<circle style="fill:#FFD05B;" cx="384.8" cy="401.2" r="11.2"/>
	<circle style="fill:#FFD05B;" cx="320.4" cy="401.2" r="11.2"/>
	<circle style="fill:#FFD05B;" cx="255.2" cy="401.2" r="11.2"/>
	<circle style="fill:#FFD05B;" cx="192.4" cy="401.2" r="11.2"/>
	<circle style="fill:#FFD05B;" cx="356.8" cy="318" r="11.2"/>
	<circle style="fill:#FFD05B;" cx="384.8" cy="106.8" r="11.2"/>
	<circle style="fill:#FFD05B;" cx="320.4" cy="106.8" r="11.2"/>
	<circle style="fill:#FFD05B;" cx="192.4" cy="106.8" r="11.2"/>
	<circle style="fill:#FFD05B;" cx="125.2" cy="106.8" r="11.2"/>
	<circle style="fill:#FFD05B;" cx="128" cy="254" r="11.2"/>
</g>
<g>
</g>
<g>
</g>
<g>
</g>
<g>
</g>
<g>
</g>
<g>
</g>
<g>
</g>
<g>
</g>
<g>
</g>
<g>
</g>
<g>
</g>
<g>
</g>
<g>
</g>
<g>
</g>
<g>
</g>
</svg>
