<?xml version="1.0" encoding="iso-8859-1"?>
<!-- Generator: Adobe Illustrator 19.0.0, SVG Export Plug-In . SVG Version: 6.00 Build 0)  -->
<svg version="1.1" id="Layer_1" xmlns="http://www.w3.org/2000/svg" xmlns:xlink="http://www.w3.org/1999/xlink" x="0px" y="0px"
	 viewBox="0 0 511.995 511.995" style="enable-background:new 0 0 511.995 511.995;" xml:space="preserve">
<circle style="fill:#FFD630;" cx="255.997" cy="255.997" r="255.997"/>
<path style="fill:#F5BE18;" d="M410.953,218.371L269.952,77.371l-18.18,38.474l1.902,97.242l-34.035,39.531l-65.321-59.614
	l-62.361,62.362l244.162,244.161c92.38-30.23,161.506-111.617,173.978-210.762l-84.769-84.769l-14.586,14.586L410.953,218.371z"/>
<path style="fill:#FEFEFE;" d="M249.87,256.423l-2.748,8.878l-108.235-32.977l2.748-8.878L249.87,256.423z M247.967,119.862
	l9.09-0.211l2.325,113.097l-9.09,0.211L247.967,119.862z M397.001,223.233l2.537,8.878l-139.099,31.075l-2.537-8.878
	L397.001,223.233z M251.138,272.066l8.878-2.325l44.393,108.446l-8.878,2.325L251.138,272.066z"/>
<circle style="fill:#E84F4F;" cx="253.676" cy="261.281" r="61.098"/>
<path style="fill:#C94545;" d="M253.675,200.191c33.823,0,61.094,27.482,61.094,61.094c0,33.823-27.482,61.305-61.094,61.305
	L253.675,200.191L253.675,200.191z"/>
<circle style="fill:#C5C6C6;" cx="307.579" cy="398.055" r="44.397"/>
<path style="fill:#9D9E9E;" d="M307.58,353.665c24.522,0,44.393,19.871,44.393,44.393c0,24.522-19.871,44.393-44.393,44.393v-88.574
	l0,0V353.665z"/>
<circle style="fill:#00CC96;" cx="401.867" cy="227.25" r="33.19"/>
<path style="fill:#12B589;" d="M401.863,194.061c18.391,0,33.189,14.798,33.189,33.189s-14.798,33.189-33.189,33.189V194.061
	L401.863,194.061z"/>
<circle style="fill:#006775;" cx="120.704" cy="222.387" r="43.759"/>
<path style="fill:#004F59;" d="M120.707,178.629c24.099,0,43.759,19.448,43.759,43.759c0,24.099-19.448,43.759-43.759,43.759V178.84
	l0,0C120.707,178.84,120.707,178.629,120.707,178.629z"/>
<circle style="fill:#E84F4F;" cx="251.565" cy="95.339" r="25.579"/>
<path style="fill:#C94545;" d="M251.561,69.761c14.164,0,25.579,11.415,25.579,25.579s-11.415,25.579-25.579,25.579v-51.37l0,0
	L251.561,69.761L251.561,69.761z"/>
<g>
</g>
<g>
</g>
<g>
</g>
<g>
</g>
<g>
</g>
<g>
</g>
<g>
</g>
<g>
</g>
<g>
</g>
<g>
</g>
<g>
</g>
<g>
</g>
<g>
</g>
<g>
</g>
<g>
</g>
</svg>
