<?xml version="1.0" encoding="iso-8859-1"?>
<!-- Generator: Adobe Illustrator 19.0.0, SVG Export Plug-In . SVG Version: 6.00 Build 0)  -->
<svg version="1.1" id="Capa_1" xmlns="http://www.w3.org/2000/svg" xmlns:xlink="http://www.w3.org/1999/xlink" x="0px" y="0px"
	 viewBox="0 0 490.1 490.1" style="enable-background:new 0 0 490.1 490.1;" xml:space="preserve">
<g>
	<g>
		<path d="M96.65,287c14.1,0,25.8-9.7,29.1-22.8h29v-14.5h-29c-3.2-13.1-15-22.8-29.1-22.8c-16.5,0-30,13.4-30,30c0,0,0,0,0,0.1
			c0,0,0,0,0,0.1C66.65,273.6,80.15,287,96.65,287z M96.65,241.4c8.6,0,15.6,7,15.6,15.6s-7,15.6-15.6,15.6c-8.6,0-15.6-7-15.6-15.6
			S88.05,241.4,96.65,241.4z"/>
		<path d="M244.35,102.3c0.4,0,0.8,0,1.2,0l0,0c2.3,0,4.5,0.1,6.8,0.4V92.4c13.1-3.2,22.8-15,22.8-29.1c0-16.5-13.4-30-30-30
			c0,0,0,0-0.1,0c0,0,0,0-0.1,0c-16.5,0-30,13.4-30,30c0,14.1,9.7,25.8,22.8,29.1v10.4C239.95,102.5,242.15,102.3,244.35,102.3z
			 M229.45,63.3c0-8.6,7-15.6,15.6-15.6s15.6,7,15.6,15.6s-7,15.6-15.6,15.6S229.45,71.9,229.45,63.3z"/>
		<path d="M163.95,22.8h-11.8c-3.2-13.1-15-22.8-29.1-22.8c-16.5,0-30,13.4-30,30c0,16.5,13.4,30,30,30c14.1,0,25.8-9.7,29.1-22.8
			h11.8c13.6,0,24.7,11.1,24.7,24.7V130c4.1-5.2,9-9.8,14.3-13.7V61.8C202.95,40.3,185.45,22.8,163.95,22.8z M123.05,45.6
			c-8.6,0-15.6-7-15.6-15.6s7-15.6,15.6-15.6c8.6,0,15.6,7,15.6,15.6S131.65,45.6,123.05,45.6z"/>
		<path d="M188.65,428.2c0,13.6-11.1,24.7-24.7,24.7h-11.8c-3.2-13.1-15-22.8-29.1-22.8c-16.5,0-30,13.4-30,30c0,16.5,13.4,30,30,30
			c14.1,0,25.8-9.7,29.1-22.8h11.8c21.5,0,39-17.5,39-39v-97.7h-11c-1.1,0-2.2-0.1-3.3-0.2V428.2z M123.05,475.7
			c-8.6,0-15.6-7-15.6-15.6s7-15.6,15.6-15.6c8.6,0,15.6,7,15.6,15.6S131.65,475.7,123.05,475.7z"/>
		<path d="M96.65,401.6c16.5,0,30-13.4,30-30c0-14.1-9.7-25.8-22.8-29.1v-11.8c0-13.6,11.1-24.7,24.7-24.7h26.5
			c-0.1-1.1-0.2-2.2-0.2-3.3v-11.1h-26.3c-21.5,0-39,17.5-39,39v11.8c-13.1,3.2-22.8,15-22.8,29.1
			C66.65,388.2,80.15,401.6,96.65,401.6z M96.65,356c8.6,0,15.6,7,15.6,15.6s-7,15.6-15.6,15.6c-8.6,0-15.6-7-15.6-15.6
			C81.05,363.1,88.05,356,96.65,356z"/>
		<path d="M367.05,0c-14.1,0-25.8,9.7-29.1,22.8h-11.8c-21.5,0-39,17.5-39,39v54.3c5.3,3.9,10.2,8.4,14.3,13.5V61.8
			c0-13.6,11.1-24.7,24.7-24.7h11.8c3.2,13.1,15,22.8,29.1,22.8c16.5,0,30-13.4,30-30C397.05,13.4,383.55,0,367.05,0z M367.05,45.6
			c-8.6,0-15.6-7-15.6-15.6s7-15.6,15.6-15.6s15.6,7,15.6,15.6S375.65,45.6,367.05,45.6z"/>
		<path d="M237.85,330.4v67.3c-13.1,3.2-22.8,15-22.8,29.1c0,16.5,13.4,30,30,30h0.1l0,0c16.5,0,30-13.4,30-30
			c0-14.1-9.7-25.8-22.8-29.1v-67.3L237.85,330.4L237.85,330.4z M260.65,426.7c0,8.6-7,15.6-15.6,15.6s-15.6-7-15.6-15.6
			s7-15.6,15.6-15.6S260.65,418.1,260.65,426.7z"/>
		<path d="M66.65,142.3c0,14.1,9.7,25.8,22.8,29.1v11.8c0,21.5,17.5,39,39,39h26.3v-9.3c0-1.7,0.2-3.4,0.5-5h-26.7
			c-13.6,0-24.7-11.1-24.7-24.7v-11.8c13.1-3.2,22.8-15,22.8-29.1c0-16.5-13.4-30-30-30S66.65,125.8,66.65,142.3z M96.65,126.7
			c8.6,0,15.6,7,15.6,15.6s-7,15.6-15.6,15.6c-8.6,0-15.6-7-15.6-15.6S88.05,126.7,96.65,126.7z"/>
		<path d="M298.15,330.5h-11v97.7c0,21.5,17.5,39,39,39h11.8c3.2,13.1,15,22.8,29.1,22.8c16.5,0,30-13.4,30-30c0-16.5-13.4-30-30-30
			c-14.1,0-25.8,9.7-29.1,22.8h-11.8c-13.6,0-24.7-11.1-24.7-24.7v-97.9C300.35,330.4,299.25,330.5,298.15,330.5z M367.05,444.4
			c8.6,0,15.6,7,15.6,15.6s-7,15.6-15.6,15.6s-15.6-7-15.6-15.6S358.45,444.4,367.05,444.4z"/>
		<path d="M183.75,175.1v21.5h-1.4c-9,0-16.3,7.3-16.3,16.3v89.9c0,9,7.3,16.3,16.3,16.3h125.4c9,0,16.3-7.3,16.3-16.3v-89.9
			c0-9-7.3-16.3-16.3-16.3h-0.4v-21.5c0-34.1-27.7-61.8-61.8-61.8C211.45,113.3,183.75,141,183.75,175.1z M254.75,261.9
			c-1.2,0.9-1.6,1.8-1.6,3.3c0,6.6,0,13.2,0,19.8l0,0c0.1,2.7-1.3,5.4-3.7,6.7c-5.8,2.9-11.5-1.2-11.5-6.6l0,0c0-6.6,0-13.2,0-19.8
			c0-1.3-0.3-2.2-1.5-3.1c-6-4.4-7.9-11.9-5-18.5c2.9-6.5,10-10.2,16.7-8.9c7.4,1.5,12.6,7.5,12.7,14.9
			C260.95,254.6,258.85,258.8,254.75,261.9z M210.75,175.1c0-19.2,15.6-34.8,34.8-34.8s34.8,15.6,34.8,34.8v21.5h-69.5v-21.5H210.75
			z"/>
		<path d="M393.45,227c-14.1,0-25.8,9.7-29.1,22.8h-29v14.3h29c3.2,13.1,15,22.8,29.1,22.8c16.5,0,30-13.4,30-30
			C423.45,240.5,409.95,227,393.45,227z M393.45,272.6c-8.6,0-15.6-7-15.6-15.6s7-15.6,15.6-15.6s15.6,7,15.6,15.6
			S402.05,272.6,393.45,272.6z"/>
		<path d="M393.45,112.4c-16.5,0-30,13.4-30,30c0,14.1,9.7,25.8,22.8,29.1v11.8c0,13.6-11.1,24.7-24.7,24.7h-26.7
			c0.3,1.6,0.5,3.3,0.5,5v9.4h26.3c21.5,0,39-17.5,39-39v-11.8c13.1-3.2,22.8-15,22.8-29.1C423.45,125.8,409.95,112.4,393.45,112.4z
			 M393.45,158c-8.6,0-15.6-7-15.6-15.6s7-15.6,15.6-15.6s15.6,7,15.6,15.6S402.05,158,393.45,158z"/>
		<path d="M423.45,371.7c0-14.1-9.7-25.8-22.8-29.1v-11.8c0-21.5-17.5-39-39-39h-26.3v11c0,1.1-0.1,2.2-0.2,3.3h26.5
			c13.6,0,24.7,11.1,24.7,24.7v11.8c-13.1,3.2-22.8,15-22.8,29.1c0,16.5,13.4,30,30,30C409.95,401.7,423.45,388.3,423.45,371.7z
			 M393.45,387.4c-8.6,0-15.6-7-15.6-15.6s7-15.6,15.6-15.6s15.6,7,15.6,15.6S402.05,387.4,393.45,387.4z"/>
	</g>
</g>
<g>
</g>
<g>
</g>
<g>
</g>
<g>
</g>
<g>
</g>
<g>
</g>
<g>
</g>
<g>
</g>
<g>
</g>
<g>
</g>
<g>
</g>
<g>
</g>
<g>
</g>
<g>
</g>
<g>
</g>
</svg>
