<?xml version="1.0" encoding="iso-8859-1"?>
<!-- Generator: Adobe Illustrator 19.0.0, SVG Export Plug-In . SVG Version: 6.00 Build 0)  -->
<svg version="1.1" id="Layer_1" xmlns="http://www.w3.org/2000/svg" xmlns:xlink="http://www.w3.org/1999/xlink" x="0px" y="0px"
	 viewBox="0 0 511.997 511.997" style="enable-background:new 0 0 511.997 511.997;" xml:space="preserve">
<g>
	<path style="fill:#333E48;" d="M256,473.196c-120.606,0-218.725-98.12-218.725-218.726S135.394,35.745,256,35.745
		s218.726,98.12,218.726,218.725S376.606,473.196,256,473.196z M256,52.263c-111.498,0-202.207,90.709-202.207,202.207
		S144.502,456.678,256,456.678s202.208-90.71,202.208-202.208S367.498,52.263,256,52.263z"/>
	<rect x="247.74" y="62.097" style="fill:#333E48;" width="16.518" height="149.897"/>
	
		<rect x="96.939" y="163.624" transform="matrix(-0.7071 -0.7071 0.7071 -0.7071 171.8984 414.9693)" style="fill:#333E48;" width="149.907" height="16.518"/>
	<rect x="62.097" y="247.739" style="fill:#333E48;" width="149.908" height="16.518"/>
	
		<rect x="163.633" y="265.162" transform="matrix(-0.7071 -0.7071 0.7071 -0.7071 52.9439 702.1503)" style="fill:#333E48;" width="16.518" height="149.896"/>
	<rect x="247.74" y="300.003" style="fill:#333E48;" width="16.518" height="149.897"/>
	
		<rect x="265.163" y="331.857" transform="matrix(-0.7071 -0.7071 0.7071 -0.7071 340.1172 821.1129)" style="fill:#333E48;" width="149.907" height="16.518"/>
	<rect x="300.003" y="247.739" style="fill:#333E48;" width="149.908" height="16.518"/>
	
		<rect x="331.851" y="96.934" transform="matrix(-0.7071 -0.7071 0.7071 -0.7071 459.0608 533.9239)" style="fill:#333E48;" width="16.518" height="149.907"/>
</g>
<circle style="fill:#0055B8;" cx="255.999" cy="255.998" r="84.034"/>
<circle style="fill:#00A8E1;" cx="255.999" cy="44.004" r="44.003"/>
<circle style="fill:#FF9E16;" cx="106.091" cy="106.101" r="44.004"/>
<circle style="fill:#00A8E1;" cx="44.004" cy="255.998" r="44.004"/>
<circle style="fill:#4BB6AA;" cx="106.091" cy="405.906" r="44.004"/>
<circle style="fill:#FF9E16;" cx="255.999" cy="467.993" r="44.003"/>
<circle style="fill:#0071CE;" cx="405.907" cy="405.906" r="44.003"/>
<circle style="fill:#FF9E16;" cx="467.993" cy="255.998" r="44.003"/>
<circle style="fill:#0071CE;" cx="405.907" cy="106.09" r="44.003"/>
<g>
</g>
<g>
</g>
<g>
</g>
<g>
</g>
<g>
</g>
<g>
</g>
<g>
</g>
<g>
</g>
<g>
</g>
<g>
</g>
<g>
</g>
<g>
</g>
<g>
</g>
<g>
</g>
<g>
</g>
</svg>
