<?xml version="1.0" encoding="iso-8859-1"?>
<!-- Generator: Adobe Illustrator 19.0.0, SVG Export Plug-In . SVG Version: 6.00 Build 0)  -->
<svg version="1.1" id="Layer_1" xmlns="http://www.w3.org/2000/svg" xmlns:xlink="http://www.w3.org/1999/xlink" x="0px" y="0px"
	 viewBox="0 0 469.4 469.4" style="enable-background:new 0 0 469.4 469.4;" xml:space="preserve">
<circle style="fill:#84DBFF;" cx="234.7" cy="234.7" r="234.7"/>
<path style="fill:#324A5E;" d="M377.4,163h-68.5V96.3h-15.1v121.2h-99.6v-84.6h-15.1V225c0,4.2,3.4,7.6,7.6,7.6h29V305H111.8v15.1
	h111.4c4.2,0,7.6-3.4,7.6-7.6v-80h63v121.2h15.1V178.1h60.9v85.3h15.1v-92.9C385,166.4,381.6,163,377.4,163z"/>
<g>
	<circle style="fill:#FFFFFF;" cx="301.3" cy="96.2" r="36.7"/>
	<circle style="fill:#FFFFFF;" cx="186.6" cy="125.2" r="36.7"/>
	<circle style="fill:#FFFFFF;" cx="301.3" cy="353.8" r="36.7"/>
	<circle style="fill:#FFFFFF;" cx="111.8" cy="312.6" r="36.7"/>
	<circle style="fill:#FFFFFF;" cx="377.4" cy="263.4" r="36.7"/>
</g>
<circle style="fill:#FFD05B;" cx="377.4" cy="263.4" r="21.6"/>
<circle style="fill:#2C9984;" cx="301.3" cy="353.8" r="21.6"/>
<circle style="fill:#FFD05B;" cx="186.6" cy="125.2" r="21.6"/>
<g>
	<circle style="fill:#FF7058;" cx="111.8" cy="312.6" r="21.6"/>
	<circle style="fill:#FF7058;" cx="301.3" cy="96.2" r="21.6"/>
</g>
<g>
</g>
<g>
</g>
<g>
</g>
<g>
</g>
<g>
</g>
<g>
</g>
<g>
</g>
<g>
</g>
<g>
</g>
<g>
</g>
<g>
</g>
<g>
</g>
<g>
</g>
<g>
</g>
<g>
</g>
</svg>
